<html>
<head>
<meta charset="UTF-8">
<meta name="viewport" content="width=device-width, initial-scale=1.0"/>

<style>
.comment
{
    padding-left: 20px;
    margin-top: 4px;
    margin-right: 4px;
    margin-bottom: 4px;
    border: 2px #000 solid;
}
.submission
{
    border: 4px #00f solid;
    padding-left: 20px;
}
.hidden
{
    display: none;
}
</style>
</head>
<body><div class="submission" id="t3_5uqtsv">
    <p class="userinfo">
        <a href="https://www.reddit.com/u/joaopedro735">joaopedro735</a>
        <span class="score"> | 8 points</span>
        <span class="timestamp"> | Feb 18 2017 04:35:54</span>
    </p>
    <strong>[MOVIE] The Forger (2014) [1080p][1.43GB]</strong>
    <p><p>Link:
https://mega.nz/#F!zU1WjRKC</p>
<p>Key:
!otW2YJs3q7F8FVMU23o7Pg</p>
<blockquote>
<p>General</p>
</blockquote>
<p>Complete name               : The.Forger.2014.1080p.BluRay.x264.YIFY.mp4</p>
<p>Format                      : MPEG-4</p>
<p>Format profile              : Base Media</p>
<p>File size                   : 1.44 GiB</p>
<p>Duration                    : 1 h 35 min</p>
<p>Overall bit rate mode       : Variable</p>
<p>Overall bit rate            : 2 158 kb/s</p>
<blockquote>
<p>Video</p>
</blockquote>
<p>Format                      : AVC</p>
<p>Format/Info                 : Advanced Video Codec</p>
<p>Format profile              : High@L4.1</p>
<p>Codec ID                    : avc1</p>
<p>Bit rate                    : 2 060 kb/s</p>
<p>Maximum bit rate            : 13.6 Mb/s</p>
<p>Width                       : 1 920 pixels</p>
<p>Height                      : 808 pixels</p>
<p>Display aspect ratio        : 2.40:1</p>
<p>Frame rate mode             : Constant</p>
<p>Frame rate                  : 24.000 FPS</p>
<p>Bit depth                   : 8 bits</p>
<p>Scan type                   : Progressive</p>
<p>Bits/(Pixel*Frame)          : 0.055</p>
<p>Stream size                 : 1.37 GiB (95%)</p>
<p>Writing library             : x264 core 123 r2189 35cf912</p>
<p>Color range                 : Limited</p>
<p>Color primaries             : BT.709</p>
<p>Matrix coefficients         : BT.709</p>
<blockquote>
<p>Audio</p>
</blockquote>
<p>Format                      : AAC</p>
<p>Format/Info                 : Advanced Audio Codec</p>
<p>Format profile              : LC</p>
<p>Duration                    : 1 h 35 min</p>
<p>Bit rate mode               : Variable</p>
<p>Bit rate                    : 93.8 kb/s</p>
<p>Maximum bit rate            : 101 kb/s</p>
<p>Channel(s)                  : 2 channels</p>
<p>Channel positions           : Front: L R</p>
<p>Sampling rate               : 48.0 kHz</p>
<p>Frame rate                  : 46.875 FPS (1024 spf)</p>
<p>Compression mode            : Lossy</p>
<p>Stream size                 : 64.1 MiB (4%)</p>
<p>Language                    : English</p></p>
    <p class="toolbar">
        <a href="https://www.reddit.com/r/megalinks/comments/5uqtsv">permalink</a>
    </p>
</div>
<div class="comment" id="t1_ddw5dsu">
    <p class="userinfo">
        <a
        class="toggle_hide_button"
        href="javascript:void(0)"
        onclick="toggle_collapse(this.parentElement.parentElement)">[-]
        </a>
        <a href="https://www.reddit.com/u/boltrop">boltrop</a>
        <span class="score"> | 2 points</span>
        <span class="timestamp"> | Feb 18 2017 04:38:06</span>
    </p>
    <div class="collapsible">
        <h3><a href="https://images-na.ssl-images-amazon.com/images/M/MV5BMTQ5NjgxMTE5OF5BMl5BanBnXkFtZTgwNDQwNzY2NDE@._V1_.jpg">The Forger</a> (2014)</h3>
<p><strong>Genre</strong>: Crime, Drama, Thriller</p>
<p><strong>Rating</strong>:  5.7 (9078 votes)</p>
<p><strong>Certification</strong>: R</p>
<p><strong>Runtime</strong>: 92 min</p>
<hr>
<blockquote>
<p><strong>Director(s)</strong>: <a href="https://www.imdb.com/name/nm1530431/">Philip Martin</a></p>
<p><strong>Writer(s)</strong>: <a href="https://www.imdb.com/name/nm0006902/">Richard D'Ovidio</a></p>
<p><strong>Cast</strong>: <a href="https://www.imdb.com/name/nm0000237/">John Travolta</a>, <a href="https://www.imdb.com/name/nm0001626/">Christopher Plummer</a>, <a href="https://www.imdb.com/name/nm4446467/">Tye Sheridan</a>, <a href="https://www.imdb.com/name/nm0817844/">Abigail Spencer</a></p>
<p><strong>Plot</strong>: A thief works with his father and son to forge a painting by Monet and steal the original. Together, they plan the heist of their lives.</p>
</blockquote>
<hr>
<p>^This ^summary ^is ^taken ^from <a href="https://www.imdb.com/title/tt2376218/">^imdb.com</a> ^| ^For ^feedback ^or ^suggestions ^contact <a href="http://www.reddit.com/message/compose/?to=indigo6alpha">^/u/indigo6alpha</a></p>
        <p class="toolbar">
            <a href="https://www.reddit.com/r/megalinks/comments/5uqtsv/_/ddw5dsu">permalink</a>
        </p>
        
    </div>
</div>

<div class="comment" id="t1_ddw5bhm">
    <p class="userinfo">
        <a
        class="toggle_hide_button"
        href="javascript:void(0)"
        onclick="toggle_collapse(this.parentElement.parentElement)">[-]
        </a>
        <a href="https://www.reddit.com/u/SubZorro">SubZorro</a>
        <span class="score"> | 1 points</span>
        <span class="timestamp"> | Feb 18 2017 04:36:08</span>
    </p>
    <div class="collapsible">
        <h5>Subtitles for this movie:</h5>
<hr>
<blockquote>
<ul>
<li>
<p><strong>The.Forger.2014.720p.BluRay.x264.YIFY</strong> - <code>1 CD</code> - <a href="http://dl.opensubtitles.org/en/download/vrf-a7a5bc78/sub/6128106">Download Subtitle</a></p>
</li>
<li>
<p><strong>The.Forger.2014.720p.BRRip.XviD.AC3-RARBG</strong> - <code>1 CD</code> - <a href="http://dl.opensubtitles.org/en/download/vrf-c6374ad4/sub/6154912">Download Subtitle</a></p>
</li>
<li>
<p><strong>The.Forger.2014.1080p.BluRay.x264.DTS-RARBG</strong> - <code>1 CD</code> - <a href="http://dl.opensubtitles.org/en/download/vrf-91fdc8a3/sub/6273632">Download Subtitle</a></p>
</li>
</ul>
</blockquote>
<hr>
<p>^This ^list ^of ^subtitles ^are ^taken ^from <a href="http://www.opensubtitles.org">^opensubtitles.org</a> ^| ^For ^feedback ^or ^suggestions ^contact <a href="http://www.reddit.com/message/compose/?to=indigo6alpha">^/u/indigo6alpha</a></p>
        <p class="toolbar">
            <a href="https://www.reddit.com/r/megalinks/comments/5uqtsv/_/ddw5bhm">permalink</a>
        </p>
        
    </div>
</div>
</body>

<script>
function toggle_collapse(comment_div)
{
    var button = comment_div.getElementsByClassName("toggle_hide_button")[0];
    var collapsible = comment_div.getElementsByClassName("collapsible")[0];
    if (collapsible.classList.contains("hidden"))
    {
        collapsible.classList.remove("hidden");
        button.innerText = "[-]";
    }
    else
    {
        collapsible.classList.add("hidden");
        button.innerText = "[+]";
    }
}
</script>
</html>
